<svg width="48" height="33" viewBox="0 0 48 33" fill="none" xmlns="http://www.w3.org/2000/svg">
<path d="M20.7309 4.1501C21.0252 4.01352 21.3541 3.96935 21.674 4.02343C21.994 4.0775 22.29 4.22728 22.5231 4.453L25.8114 7.97009L15.6059 16.9744C16.5613 17.1644 17.2367 17.4785 17.8191 17.7502C18.5971 18.1133 19.2116 18.4002 20.5708 18.4002C21.93 18.4002 22.5446 18.1134 23.3227 17.7502L23.3381 17.743C24.8411 17.0423 26.2359 16.1297 27.4798 15.033L30.1846 12.6464L35.4746 18.3037C36.0925 18.19 36.5307 17.9867 37.037 17.7505C37.5796 17.482 38.1455 17.2633 38.7277 17.0972L24.8389 2.2445L24.8016 2.206C24.1037 1.51121 23.2096 1.0471 22.2397 0.876247C21.2699 0.705396 20.271 0.836019 19.3777 1.25051L12.9235 4.2625L14.2767 7.16249L20.7309 4.1501Z" fill="#669CEC"/>
<path d="M35.5999 7.19999C37.5881 7.19999 39.1999 5.58821 39.1999 3.59999C39.1999 1.61177 37.5881 0 35.5999 0C33.6116 0 31.9999 1.61177 31.9999 3.59999C31.9999 5.58821 33.6116 7.19999 35.5999 7.19999Z" fill="#669CEC"/>
<path d="M41.1424 28C39.0731 28 37.9441 28.5268 37.0371 28.95C36.2589 29.3131 35.6443 29.6 34.2848 29.6C32.9253 29.6 32.3109 29.3132 31.5328 28.95C30.6257 28.5268 29.4969 28 27.4276 28C25.3583 28 24.2295 28.5269 23.3226 28.95C22.5445 29.3131 21.93 29.6 20.5707 29.6C19.2114 29.6 18.597 29.3132 17.819 28.95C16.912 28.5268 15.7832 28 13.714 28C11.6448 28 10.5159 28.5269 9.60888 28.95C8.83078 29.3131 8.21628 29.6 6.85699 29.6C5.49769 29.6 4.88319 29.3132 4.10509 28.95C3.19809 28.5269 2.0692 28 0 28V31.2C1.3593 31.2 1.9738 31.4868 2.75189 31.85C3.65889 32.2732 4.78779 32.8 6.85699 32.8C8.92618 32.8 10.0551 32.2731 10.9621 31.85C11.7402 31.4869 12.3547 31.2 13.714 31.2C15.0733 31.2 15.6877 31.4868 16.4657 31.85C17.3727 32.2732 18.5015 32.8 20.5707 32.8C22.6399 32.8 23.7688 32.2731 24.6757 31.85C25.4538 31.4869 26.0684 31.2 27.4276 31.2C28.7868 31.2 29.4015 31.4868 30.1796 31.85C31.0867 32.2732 32.2155 32.8 34.2848 32.8C36.3541 32.8 37.4831 32.2732 38.3902 31.85C39.1683 31.4869 39.783 31.2 41.1424 31.2C42.5018 31.2 43.1165 31.4868 43.8945 31.85C44.8017 32.2733 45.9306 32.8 47.9999 32.8V29.6C46.6405 29.6 46.0258 29.3132 45.2478 28.95C44.3406 28.5268 43.2117 28 41.1424 28Z" fill="#669CEC"/>
<path d="M47.7298 21.5957C46.5557 21.5598 45.9722 21.2882 45.2478 20.9501C44.3812 20.5457 43.3102 20.0481 41.4125 20.0043C41.3236 20.0023 41.235 20 41.1425 20C41.05 20 40.9613 20.0023 40.8725 20.0043C38.9748 20.0481 37.9037 20.5457 37.0373 20.9501C36.3127 21.2882 35.7293 21.5601 34.5551 21.5957C34.4682 21.5983 34.3787 21.6 34.2851 21.6C34.1915 21.6 34.1019 21.5983 34.0151 21.5957C32.841 21.5598 32.2576 21.2882 31.5332 20.9501C30.6667 20.5458 29.5957 20.0482 27.6981 20.0043C27.6092 20.0023 27.5207 20 27.4281 20C27.3355 20 27.247 20.0023 27.1581 20.0043C25.2605 20.0481 24.1894 20.5458 23.323 20.9501C22.5987 21.2882 22.0153 21.5601 20.8413 21.5957C20.7544 21.5983 20.6649 21.6 20.5713 21.6C20.4777 21.6 20.3882 21.5983 20.3013 21.5957C19.1274 21.5598 18.544 21.2882 17.8197 20.9501C16.9533 20.5458 15.8823 20.0481 13.9848 20.0043C13.9198 20.0025 13.8548 20.0014 13.7898 20.001C13.7643 20.001 13.7398 19.9998 13.7145 19.9998C13.6219 19.9998 13.5333 20.0021 13.4445 20.0041C11.547 20.0479 10.4759 20.5456 9.60948 20.9499C8.88498 21.288 8.30168 21.5599 7.12769 21.5955C7.04079 21.5981 6.95129 21.5998 6.85769 21.5998C6.76409 21.5998 6.67459 21.5981 6.58769 21.5955C5.41289 21.56 4.82989 21.2882 4.10499 20.95C3.23859 20.5457 2.1676 20.048 0.27 20.0042C0.1811 20.0022 0.0924998 19.9999 0 19.9999V23.1999C1.3593 23.1999 1.9738 23.4866 2.75189 23.8498C3.65889 24.273 4.78779 24.7998 6.85699 24.7998C8.92618 24.7998 10.0551 24.2729 10.9621 23.8498C11.7402 23.4867 12.3547 23.1999 13.714 23.1999C15.0733 23.1999 15.6877 23.4866 16.4657 23.8498C17.3727 24.273 18.5015 24.7998 20.5707 24.7998C22.6399 24.7998 23.7688 24.2729 24.6757 23.8498C25.4538 23.4867 26.0684 23.1999 27.4276 23.1999C28.7868 23.1999 29.4015 23.4866 30.1796 23.8498C31.0867 24.273 32.2155 24.7998 34.2848 24.7998C36.3541 24.7998 37.4831 24.273 38.3902 23.8498C39.1683 23.4867 39.783 23.1999 41.1424 23.1999C42.5018 23.1999 43.1165 23.4866 43.8945 23.8498C44.8017 24.2731 45.9306 24.7998 47.9999 24.7998V21.6C47.9061 21.6 47.8166 21.5983 47.7298 21.5957Z" fill="#669CEC"/>
</svg>
