<svg width="37" height="37" viewBox="0 0 37 37" fill="none" xmlns="http://www.w3.org/2000/svg">
<path d="M37 16.65H29.2855L35.2795 10.656L32.671 8.029L24.05 16.65H20.35V12.95L28.971 4.329L26.344 1.7205L20.35 7.7145V0H16.65V7.7145L10.656 1.7205L8.029 4.329L16.65 12.95V16.65H12.95L4.329 8.029L1.7205 10.656L7.7145 16.65H0V20.35H7.7145L1.7205 26.344L4.329 28.971L12.95 20.35H16.65V24.05L8.029 32.671L10.656 35.2795L16.65 29.2855V37H20.35V29.2855L26.344 35.2795L28.971 32.671L20.35 24.05V20.35H24.05L32.671 28.971L35.2795 26.344L29.2855 20.35H37V16.65Z" fill="#2722FA"/>
</svg>
