<svg width="42" height="32" viewBox="0 0 42 32" fill="none" xmlns="http://www.w3.org/2000/svg">
<path d="M23.8342 30.7801C24.2068 30.4099 24.5025 29.97 24.7043 29.4855C24.906 29.001 25.0099 28.4815 25.0099 27.9569C25.0099 27.4323 24.906 26.9128 24.7043 26.4283C24.5025 25.9439 24.2068 25.5039 23.8342 25.1337C23.4633 24.7611 23.0223 24.4653 22.5364 24.2633C22.0506 24.0613 21.5295 23.9572 21.0032 23.9568C20.4768 23.9564 19.9556 24.0599 19.4695 24.2612C18.9833 24.4625 18.5419 24.7576 18.1705 25.1297C17.7879 25.4984 17.4828 25.9393 17.2729 26.4268C17.0629 26.9144 16.9524 27.4387 16.9478 27.9693C16.9432 28.4999 17.0445 29.0261 17.2459 29.5172C17.4473 30.0082 17.7448 30.4544 18.1208 30.8296C18.4969 31.2048 18.9441 31.5015 19.4364 31.7024C19.9286 31.9034 20.4561 32.0045 20.9879 31.9998C21.5198 31.9952 22.0454 31.885 22.534 31.6756C23.0227 31.4662 23.4647 31.1617 23.8342 30.7801ZM37.9954 15.0019C37.4693 15.0029 36.9482 14.9 36.4621 14.699C35.9761 14.498 35.5348 14.2031 35.1636 13.8311C27.355 6.04093 14.6497 6.04293 6.8391 13.8311C6.08778 14.5806 5.06877 15.0017 4.00625 15.0017C2.94373 15.0017 1.92472 14.5806 1.1734 13.8311C0.422086 13.0816 0 12.065 0 11.0049C0 9.94493 0.422086 8.92833 1.1734 8.17878C12.1063 -2.72626 29.8944 -2.72626 40.8253 8.17878C41.3858 8.7374 41.7677 9.44933 41.9227 10.2245C42.0776 10.9997 41.9986 11.8033 41.6957 12.5337C41.3928 13.2641 40.8795 13.8885 40.2209 14.3278C39.5622 14.7672 38.7877 15.0018 37.9954 15.0019ZM12.5048 23.4774C11.7127 23.4772 10.9385 23.2428 10.2799 22.8037C9.6214 22.3646 9.10815 21.7406 8.80506 21.0105C8.50196 20.2804 8.42264 19.4771 8.57712 18.7021C8.7316 17.927 9.11295 17.2151 9.67295 16.6563C15.9174 10.4245 26.0832 10.4245 32.3297 16.6563C33.081 17.4058 33.5031 18.4224 33.5031 19.4824C33.5031 20.5424 33.081 21.559 32.3297 22.3086C31.5784 23.0581 30.5594 23.4792 29.4969 23.4792C28.4343 23.4792 27.4153 23.0581 26.664 22.3086C25.1604 20.8122 23.1232 19.9718 20.9993 19.9718C18.8755 19.9718 16.8383 20.8122 15.3346 22.3086C14.9635 22.68 14.5224 22.9744 14.0368 23.175C13.5511 23.3756 13.0304 23.4784 12.5048 23.4774Z" fill="#FABE25"/>
</svg>
