<svg width="33" height="31" viewBox="0 0 33 31" fill="none" xmlns="http://www.w3.org/2000/svg">
<path d="M11.0677 1.66885L11.0423 12.0758C10.1268 11.863 9.18876 11.7673 8.25 11.7911C7.31077 12.05 6.37154 13.422 5.45769 13.7586C4.93901 11.3941 5.20923 8.92062 6.2255 6.73052C7.24178 4.54042 8.94593 2.75903 11.0677 1.66885ZM17.1854 0.0120166L22.3385 8.94339C22.9597 8.30155 23.6801 7.76806 24.4708 7.36422C25.3846 7.10534 26.8569 7.80432 27.8723 7.64899C27.1713 5.3491 25.7416 3.35151 23.8076 1.96941C21.8735 0.587315 19.5444 -0.101131 17.1854 0.0120166ZM0 31H33C31.3246 29.2914 26.2985 28.1264 21.9831 27.5569L17.2362 9.43526C18.5562 9.30582 20.1554 9.51293 21.12 9.43526L15.7638 0.115569H15.7385C15.1398 0.201328 14.5465 0.322341 13.9615 0.478002C13.4064 0.624833 12.8632 0.815246 12.3369 1.04754L12.3115 11.7911C13.2 11.351 14.4438 10.3931 15.6115 9.87536L20.1808 27.3239C18.7085 27.1945 17.4138 27.1168 16.5 27.1168C12.7685 27.1168 2.53846 28.4112 0 31Z" fill="#092AFC"/>
</svg>
