<svg width="35" height="35" viewBox="0 0 35 35" fill="none" xmlns="http://www.w3.org/2000/svg">
<path d="M29.3879 1.4856C28.1115 0.757598 26.7025 0.285049 25.2412 0.0949329C23.7799 -0.0951828 22.2949 0.000859278 20.8712 0.377575C19.4475 0.75429 18.1129 1.4043 16.9435 2.29049C15.7742 3.17667 14.793 4.28168 14.056 5.54241L13.6332 6.26391C13.5613 6.38681 13.5147 6.52251 13.4959 6.66324C13.4771 6.80396 13.4867 6.94696 13.5239 7.08405C13.5611 7.22114 13.6254 7.34964 13.7129 7.4622C13.8005 7.57475 13.9096 7.66916 14.0342 7.74003L21.9968 12.2807L17.2318 20.5167H17.1326C12.528 20.5167 8.54006 23.155 6.16483 26.8835C6.5706 26.7423 7.00296 26.6914 7.43098 26.7344C7.85899 26.7775 8.27208 26.9135 8.64067 27.1326C10.6995 24.4439 13.7703 22.6769 17.1326 22.6769C20.6379 22.6769 23.8267 24.598 25.8812 27.4811C26.1651 27.2226 26.4982 27.0224 26.8612 26.8921C27.2241 26.7618 27.6097 26.7041 27.9954 26.7222C26.0547 23.7584 23.086 21.509 19.6026 20.7745L23.8909 13.3608L31.5794 17.7445C31.7038 17.8156 31.8411 17.8617 31.9835 17.8804C32.1259 17.899 32.2707 17.8897 32.4095 17.8531C32.5483 17.8164 32.6784 17.7531 32.7924 17.6668C32.9064 17.5805 33.0021 17.4728 33.074 17.3499L33.4968 16.627C34.9849 14.0809 35.3879 11.0554 34.6174 8.21581C33.8468 5.37626 31.9657 2.95533 29.3879 1.4856ZM26.1947 12.1785L21.5915 9.55457C22.4255 8.28583 23.2187 7.31807 24.1694 6.46408C25.0953 5.63313 26.2005 4.87995 27.6994 4.06341C27.9211 5.43872 27.9881 6.58361 27.8452 7.7069C27.6761 9.04909 27.1964 10.4316 26.1932 12.1785H26.1947ZM28.0873 13.2586C29.1954 11.3317 29.802 9.67266 30.0163 7.97332C30.1578 6.86011 30.1257 5.75987 29.9843 4.59769C31.4301 5.94836 32.3843 7.73251 32.6988 9.6734C33.0133 11.6143 32.6706 13.6034 31.7238 15.3323L28.0873 13.2586ZM22.6982 4.86555C21.5463 5.90244 20.6204 7.05453 19.6945 8.47305L16.0784 6.4108C17.0985 4.77233 18.6269 3.50301 20.4363 2.79175C22.2457 2.0805 24.2393 1.96535 26.1203 2.46344C24.7657 3.2339 23.6634 3.9986 22.6982 4.86555ZM8.17554 29.2611C8.1008 29.0389 7.95494 28.8466 7.75995 28.7134C7.56496 28.5801 7.33139 28.5131 7.09446 28.5223C6.85752 28.5316 6.63005 28.6167 6.44634 28.7647C6.26262 28.9128 6.1326 29.1158 6.07588 29.3432C5.70407 30.8438 4.99981 31.6661 4.19786 32.1457C3.35799 32.6454 2.28775 32.8398 1.09357 32.8398C0.803538 32.8398 0.525384 32.9536 0.3203 33.1562C0.115215 33.3587 0 33.6335 0 33.9199C0 34.2064 0.115215 34.4811 0.3203 34.6837C0.525384 34.8862 0.803538 35 1.09357 35C2.48897 35 4.00976 34.7811 5.32788 33.9948C6.11449 33.5261 6.77755 32.8801 7.26277 32.1097C9.87131 35.396 14.9644 35.3787 17.4971 32.0751C20.0707 35.4306 25.2834 35.396 27.854 31.9513C28.5519 32.8894 29.462 33.6536 30.5118 34.1829C31.5616 34.7122 32.7221 34.992 33.9007 35C34.1908 35 34.4689 34.8862 34.674 34.6837C34.8791 34.4811 34.9943 34.2064 34.9943 33.9199C34.9943 33.6335 34.8791 33.3587 34.674 33.1562C34.4689 32.9536 34.1908 32.8398 33.9007 32.8398C31.75 32.8398 29.6066 31.4573 28.8994 29.2712C28.8295 29.0537 28.6915 28.8636 28.5054 28.7283C28.3192 28.593 28.0945 28.5195 27.8633 28.5182C27.6322 28.5169 27.4066 28.588 27.219 28.7212C27.0313 28.8544 26.8912 29.0429 26.8187 29.2597C25.4146 33.449 19.9103 33.3957 18.5309 29.4325C18.4567 29.22 18.3172 29.0357 18.1319 28.9052C17.9466 28.7748 17.7247 28.7046 17.4971 28.7046C17.2696 28.7046 17.0477 28.7748 16.8624 28.9052C16.677 29.0357 16.5376 29.22 16.4634 29.4325C15.084 33.3957 9.58114 33.449 8.17554 29.2597V29.2611Z" fill="#092AFC"/>
</svg>
