<svg width="33" height="31" viewBox="0 0 33 31" fill="none" xmlns="http://www.w3.org/2000/svg">
<path d="M1 21.4706C5.23571 21.4706 8.41206 16.3529 8.41206 16.3529C8.41206 16.3529 11.5884 21.4706 15.8241 21.4706C20.0581 21.4706 24.2938 16.3529 24.2938 16.3529C24.2938 16.3529 28.5295 21.4706 31.7059 21.4706" stroke="#092AFC" stroke-width="1.5" stroke-linecap="round" stroke-linejoin="round"/>
<path d="M1 30C5.23571 30 8.41206 24.8824 8.41206 24.8824C8.41206 24.8824 11.5884 30 15.8241 30C20.0581 30 24.2938 24.8824 24.2938 24.8824C24.2938 24.8824 28.5295 30 31.7059 30" stroke="#092AFC" stroke-width="1.5" stroke-linecap="round" stroke-linejoin="round"/>
<path d="M4.41174 13.7941L11.2353 9.52943L9.21039 6.9979C9.03048 6.77279 8.8976 6.51386 8.81962 6.23644C8.74164 5.95902 8.72015 5.66877 8.75642 5.3829C8.79269 5.09702 8.88599 4.82133 9.03078 4.57218C9.17557 4.32303 9.36891 4.10548 9.59933 3.93243C10.0407 3.60132 10.5923 3.45244 11.1403 3.51657C11.6883 3.58071 12.1907 3.85295 12.5437 4.27702L19.7647 12.9412" stroke="#092AFC" stroke-width="1.5" stroke-linecap="round" stroke-linejoin="round"/>
<path d="M24.0294 9.52941C25.1605 9.52941 26.2452 9.0801 27.045 8.28031C27.8448 7.48052 28.2941 6.39578 28.2941 5.26471C28.2941 4.13364 27.8448 3.04889 27.045 2.2491C26.2452 1.44932 25.1605 1 24.0294 1C22.8983 1 21.8136 1.44932 21.0138 2.2491C20.214 3.04889 19.7647 4.13364 19.7647 5.26471C19.7647 6.39578 20.214 7.48052 21.0138 8.28031C21.8136 9.0801 22.8983 9.52941 24.0294 9.52941V9.52941Z" stroke="#092AFC" stroke-width="1.5" stroke-linecap="round" stroke-linejoin="round"/>
</svg>
