<svg width="34" height="41" viewBox="0 0 34 41" fill="none" xmlns="http://www.w3.org/2000/svg">
<path d="M13.8675 31.2393C13.753 28.8995 13.7297 26.5602 13.7975 24.2214L14.0274 16.2736C13.5225 8.77409 11.5376 7.98247 5.43799 10.184L4.99135 10.3557C2.04654 11.5039 0 14.3171 0 17.6102C0 18.1718 0.0599962 18.7218 0.173322 19.2501L0.163323 19.1984L0.873278 22.6049C1.74489 26.7563 3.88976 30.9777 3.88976 35.2208C3.89064 36.4887 4.39462 37.7045 5.29106 38.6013C6.1875 39.4981 7.40314 40.0025 8.67112 40.0038H9.27942C9.92859 40.0023 10.5707 39.8692 11.1669 39.6124C11.7632 39.3556 12.3011 38.9806 12.7483 38.5099C13.1954 38.0393 13.5424 37.4828 13.7683 36.8742C13.9942 36.2656 14.0942 35.6175 14.0624 34.9691V34.9808L13.8675 31.2393ZM12.7442 25.3914C12.7114 25.5282 12.6336 25.65 12.5233 25.7373C12.413 25.8246 12.2766 25.8724 12.1359 25.873C12.0909 25.873 12.0442 25.863 11.9859 25.863C11.9004 25.8416 11.82 25.8035 11.7494 25.7509C11.6787 25.6983 11.6192 25.6321 11.5743 25.5564L11.5726 25.553C11.5341 25.4853 11.5104 25.4102 11.5029 25.3327C11.4954 25.2551 11.5044 25.1769 11.5293 25.1031L11.5276 25.1064C11.9434 24.1354 12.1561 23.0895 12.1526 22.0333C12.1526 20.835 11.8843 19.6984 11.4043 18.6818L11.4243 18.7301C10.555 17.2194 9.18047 16.0639 7.54286 15.467L7.49119 15.4503C7.47953 15.4503 7.47953 15.462 7.46786 15.462C5.79571 16.2254 4.47032 17.5876 3.7531 19.2801L3.73476 19.3284C3.47245 20.1506 3.34031 21.0086 3.34312 21.8716C3.34312 23.3982 3.7481 24.8297 4.45805 26.0663L4.43639 26.0247C4.46969 26.0947 4.4878 26.171 4.48953 26.2486C4.49125 26.3261 4.47655 26.4032 4.44639 26.4746L4.44805 26.4713C4.41406 26.5513 4.36462 26.6239 4.30256 26.6848C4.24051 26.7457 4.16706 26.7938 4.08641 26.8263L4.08141 26.8279C4.01323 26.851 3.94174 26.8628 3.86976 26.8629H3.86309C3.73609 26.8631 3.61216 26.8239 3.50831 26.7508C3.40447 26.6777 3.3258 26.5743 3.28313 26.4546L3.28146 26.4496C0.438306 18.6868 5.11634 15.337 6.57292 14.5221C6.53736 14.4352 6.51815 14.3426 6.51626 14.2487V14.2471L6.51459 14.1921C6.51441 14.0714 6.53993 13.9521 6.58944 13.8421C6.63895 13.7321 6.71132 13.6338 6.80173 13.5539C6.89215 13.474 6.99854 13.4143 7.11382 13.3787C7.22911 13.3431 7.35065 13.3325 7.47037 13.3475C7.59009 13.3625 7.70523 13.4029 7.80815 13.4659C7.91107 13.5288 7.9994 13.613 8.06727 13.7128C8.13514 13.8125 8.18099 13.9256 8.20177 14.0444C8.22256 14.1633 8.2178 14.2852 8.18782 14.4021L8.18948 14.3954C9.91937 15.1154 14.5324 17.8568 12.7442 25.3914Z" fill="#092AFC"/>
<path d="M16.5076 25.0014C16.3759 25.633 16.3733 26.2848 16.5001 26.9174C16.6269 27.55 16.8804 28.1504 17.2454 28.6825C17.6104 29.2145 18.0793 29.6672 18.6238 30.0133C19.1684 30.3593 19.7773 30.5916 20.414 30.696L20.4424 30.6994L21.039 30.791C22.2884 30.9861 23.5643 30.6788 24.5879 29.9362C25.6115 29.1937 26.2996 28.0762 26.502 26.828L26.5053 26.8013C27.1586 22.6149 29.9351 18.7735 31.4383 14.802L32.6649 11.5456C32.9832 10.729 33.1682 9.78236 33.1682 8.79409C33.1689 7.43499 32.8125 6.09957 32.1348 4.92147C31.4572 3.74338 30.482 2.76394 29.3068 2.08118L29.2701 2.06118L28.8468 1.81953C23.1572 -1.30027 21.0707 -0.818638 19.4191 6.50923L18.4225 14.3887C18.1271 16.7139 17.7407 19.0267 17.2642 21.3216L16.5076 25.0014ZM25.4987 5.55429L25.497 5.51096C25.497 5.43763 25.5054 5.36431 25.522 5.29598L25.5204 5.30264C25.531 5.18142 25.5674 5.06387 25.6272 4.95788C25.687 4.85189 25.7688 4.75992 25.8671 4.68814C25.9653 4.61636 26.0778 4.56642 26.197 4.54169C26.3161 4.51696 26.4392 4.518 26.5579 4.54474C26.6766 4.57148 26.7882 4.6233 26.8853 4.69673C26.9823 4.77017 27.0625 4.8635 27.1205 4.97048C27.1785 5.07747 27.213 5.19562 27.2216 5.317C27.2301 5.43839 27.2126 5.56021 27.1703 5.67429L27.1719 5.66762C27.1494 5.76274 27.1134 5.85419 27.0653 5.93927L27.0686 5.93427C28.3769 6.96587 32.4816 10.9906 28.4685 18.2285C28.4072 18.3417 28.3116 18.4325 28.1954 18.4879C28.0792 18.5433 27.9484 18.5605 27.8219 18.5368H27.8252C27.7516 18.5233 27.6803 18.4992 27.6136 18.4651L27.6186 18.4668C27.5412 18.424 27.4738 18.3654 27.4207 18.2947C27.3675 18.2241 27.3299 18.143 27.3103 18.0568V18.0518C27.291 17.9756 27.2884 17.8962 27.3025 17.8188C27.3166 17.7415 27.3471 17.6681 27.3919 17.6035L27.3903 17.6052C28.5781 16.1137 29.2228 14.2622 29.2185 12.3555C29.2185 11.9089 29.1835 11.4723 29.1168 11.0439L29.1235 11.0923C28.6949 9.29896 27.602 7.73497 26.0653 6.71589L26.0387 6.69922C26.027 6.69922 26.027 6.68756 26.0153 6.67589C24.2916 7.00073 22.739 7.92673 21.634 9.28906L21.624 9.30239C20.7559 10.5941 20.2939 12.1158 20.2974 13.6721C20.2974 14.3521 20.384 15.012 20.5457 15.642L20.534 15.587C20.5463 15.6639 20.5423 15.7425 20.5222 15.8177C20.5021 15.893 20.4664 15.9631 20.4174 16.0236V16.022C20.3627 16.0922 20.2937 16.1501 20.215 16.1918C20.1362 16.2334 20.0496 16.2579 19.9607 16.2636H19.8091C19.6714 16.2445 19.5447 16.1783 19.4505 16.0762C19.3562 15.974 19.3004 15.8424 19.2924 15.7037V15.702C18.6925 7.99914 23.6572 6.00593 25.4937 5.54929L25.4987 5.55429Z" fill="#092AFC"/>
</svg>
