<svg width="173" height="173" viewBox="0 0 173 173" fill="none" xmlns="http://www.w3.org/2000/svg">
<path d="M86.5 0C38.7304 0 0 38.7304 0 86.5C0 134.27 38.7304 173 86.5 173C134.27 173 173 134.27 173 86.5C173 38.7304 134.27 0 86.5 0ZM86.5 20.0622C123.19 20.0622 152.938 49.8097 152.938 86.5C152.938 123.19 123.19 152.938 86.5 152.938C49.8097 152.938 20.0622 123.19 20.0622 86.5C20.0622 49.8097 49.8097 20.0622 86.5 20.0622ZM64.875 43.3133V129.687L129.75 86.5L64.875 43.3133Z" fill="#E8E8E8"/>
</svg>
